<svg width="31" height="30" viewBox="0 0 31 30" fill="none" xmlns="http://www.w3.org/2000/svg">
<path d="M30.5784 26.255L13.9712 11.9343L14.7442 11.2003C15.3538 10.6205 15.7189 9.84983 15.771 9.03307L15.8601 8.99086L18.9774 7.1448C19.181 6.90975 19.2863 6.61207 19.2735 6.30829C19.2606 6.00451 19.1304 5.71577 18.9076 5.49692L13.4849 0.347757C13.2547 0.136623 12.9505 0.0131816 12.6303 0.000996395C12.3101 -0.0111888 11.9964 0.0887353 11.749 0.281695L9.80388 3.24347L9.76126 3.32788C8.92819 3.37743 8.11061 3.70224 7.47903 4.3023L4.53033 7.10442C3.89681 7.70449 3.55583 8.48071 3.50352 9.27162L3.4144 9.31383L0.297155 11.1599C0.0935654 11.3949 -0.0118056 11.6926 0.00105194 11.9964C0.0139094 12.3002 0.1441 12.5889 0.366901 12.8078L5.78963 17.9569C6.01984 18.1681 6.32408 18.2915 6.64427 18.3037C6.96446 18.3159 7.27817 18.216 7.52552 18.023L9.47065 15.0612L9.51521 14.9768C10.3483 14.9273 11.1659 14.6025 11.7974 14.0024L12.6538 13.1895L27.7324 28.9636C28.1703 29.4205 28.8425 29.4939 29.23 29.1269L30.7547 27.679C31.1403 27.312 31.0628 26.6716 30.5823 26.2569L30.5784 26.255Z" fill="#121223"/>
</svg>
