<svg width="101" height="23" viewBox="0 0 101 23" fill="none" xmlns="http://www.w3.org/2000/svg">
<path d="M3.06 21.99V19.11H9.09C10.19 19.11 11.04 18.81 11.64 18.21C12.24 17.59 12.54 16.75 12.54 15.69C12.54 14.59 12.22 13.72 11.58 13.08C10.94 12.44 10.05 12.12 8.91 12.12H3.06V9.24001H8.64C9.72 9.24001 10.55 8.98 11.13 8.46C11.71 7.94 12 7.19 12 6.21C12 5.25001 11.72 4.52001 11.16 4.02C10.62 3.52 9.82 3.27001 8.76 3.27001H3.06V0.390005H9.48C11.42 0.390005 12.97 0.880005 14.13 1.86001C15.31 2.82 15.9 4.13 15.9 5.79C15.9 6.83 15.65 7.74 15.15 8.52C14.67 9.28 14.02 9.87001 13.2 10.29C12.38 10.71 11.45 10.92 10.41 10.92L10.56 10.29C11.66 10.29 12.66 10.54 13.56 11.04C14.46 11.52 15.17 12.2 15.69 13.08C16.23 13.96 16.5 14.98 16.5 16.14C16.5 17.32 16.22 18.35 15.66 19.23C15.12 20.11 14.35 20.79 13.35 21.27C12.37 21.75 11.21 21.99 9.87 21.99H3.06ZM-5.28991e-07 21.99V0.390005H3.9V21.99H-5.28991e-07ZM19.4273 21.99V6.69H23.2073V21.99H19.4273ZM19.2473 4.17V4.29153e-06H23.3573V4.17H19.2473ZM38.0524 21.99V18.54L38.3524 18.6C38.0924 19.72 37.4624 20.62 36.4624 21.3C35.4624 21.96 34.2724 22.29 32.8924 22.29C31.4924 22.29 30.2724 21.97 29.2324 21.33C28.2124 20.67 27.4224 19.75 26.8624 18.57C26.3024 17.39 26.0224 16 26.0224 14.4C26.0224 12.78 26.3124 11.37 26.8924 10.17C27.4724 8.97 28.2824 8.04 29.3224 7.38C30.3824 6.72 31.6124 6.39 33.0124 6.39C34.4524 6.39 35.6424 6.74 36.5824 7.44001C37.5224 8.12 38.1024 9.07 38.3224 10.29L37.9324 10.32V0.390005H41.7424V21.99H38.0524ZM34.0024 19.2C35.2224 19.2 36.1924 18.78 36.9124 17.94C37.6524 17.08 38.0224 15.88 38.0224 14.34C38.0224 12.8 37.6524 11.61 36.9124 10.77C36.1724 9.93001 35.1924 9.51001 33.9724 9.51001C32.7724 9.51001 31.8024 9.94001 31.0624 10.8C30.3224 11.64 29.9524 12.83 29.9524 14.37C29.9524 15.91 30.3224 17.1 31.0624 17.94C31.8024 18.78 32.7824 19.2 34.0024 19.2Z" fill="url(#paint0_linear_393_10)"/>
<path d="M45.6152 21.99V0.390005H49.5152V21.99H45.6152ZM47.4752 21.99V18.9H60.1352V21.99H47.4752ZM62.6402 21.99V6.69H66.4202V21.99H62.6402ZM62.4602 4.17V4.29153e-06H66.5702V4.17H62.4602ZM74.4588 21.99L68.3388 6.69H72.4188L77.3088 20.76H75.2988L80.1888 6.69H84.1488L77.9988 21.99H74.4588ZM92.7134 22.29C91.0934 22.29 89.6734 21.95 88.4534 21.27C87.2534 20.59 86.3134 19.65 85.6334 18.45C84.9734 17.25 84.6434 15.87 84.6434 14.31C84.6434 12.75 84.9734 11.38 85.6334 10.2C86.3134 9.00001 87.2534 8.07 88.4534 7.41C89.6534 6.73 91.0534 6.39 92.6534 6.39C94.1734 6.39 95.4934 6.71 96.6134 7.35C97.7334 7.97 98.6034 8.85001 99.2234 9.99001C99.8434 11.13 100.153 12.46 100.153 13.98C100.153 14.26 100.143 14.52 100.123 14.76C100.103 15 100.073 15.24 100.033 15.48H86.9834V12.84H97.1234L96.3434 13.56C96.3434 12.12 96.0134 11.04 95.3534 10.32C94.6934 9.6 93.7734 9.24001 92.5934 9.24001C91.3134 9.24001 90.2934 9.68001 89.5334 10.56C88.7934 11.44 88.4234 12.71 88.4234 14.37C88.4234 16.01 88.7934 17.27 89.5334 18.15C90.2934 19.01 91.3634 19.44 92.7434 19.44C93.5434 19.44 94.2434 19.29 94.8434 18.99C95.4434 18.69 95.8834 18.23 96.1634 17.61H99.7334C99.2334 19.05 98.3834 20.19 97.1834 21.03C96.0034 21.87 94.5134 22.29 92.7134 22.29Z" fill="url(#paint1_linear_393_10)"/>
<defs>
<linearGradient id="paint0_linear_393_10" x1="50.14" y1="-7.00999" x2="50.14" y2="26.99" gradientUnits="userSpaceOnUse">
<stop stop-color="#84B5DC"/>
<stop offset="1" stop-color="white"/>
</linearGradient>
<linearGradient id="paint1_linear_393_10" x1="50.14" y1="-7.00999" x2="50.14" y2="26.99" gradientUnits="userSpaceOnUse">
<stop offset="0.197115" stop-color="#9FC8EC"/>
<stop offset="0.855769" stop-color="#1467AE"/>
</linearGradient>
</defs>
</svg>
