<svg width="36" height="36" viewBox="0 0 36 36" fill="none" xmlns="http://www.w3.org/2000/svg">
<path d="M25.5 5.01002C27.7803 6.32655 29.6739 8.22014 30.9904 10.5004C32.3069 12.7808 33 15.3674 33 18.0005C33 20.6336 32.3069 23.2202 30.9903 25.5005C29.6738 27.7808 27.7802 29.6744 25.4998 30.9909C23.2195 32.3074 20.6328 33.0004 17.9998 33.0004C15.3667 33.0004 12.78 32.3072 10.4998 30.9906C8.21948 29.6741 6.32594 27.7804 5.00945 25.5001C3.69297 23.2198 2.99993 20.6331 3 18L3.0075 17.514C3.0915 14.9235 3.84532 12.399 5.19546 10.1865C6.5456 7.97406 8.44598 6.1492 10.7113 4.88985C12.9767 3.63049 15.5297 2.97962 18.1215 3.00068C20.7133 3.02174 23.2554 3.71402 25.5 5.01002ZM18 9.00002C17.6022 9.00002 17.2206 9.15806 16.9393 9.43936C16.658 9.72067 16.5 10.1022 16.5 10.5V18C16.5 18.3978 16.658 18.7794 16.9393 19.0607C17.2206 19.342 17.6022 19.5 18 19.5H23.25C23.6478 19.5 24.0294 19.342 24.3107 19.0607C24.592 18.7794 24.75 18.3978 24.75 18C24.75 17.6022 24.592 17.2207 24.3107 16.9394C24.0294 16.6581 23.6478 16.5 23.25 16.5H19.5V10.5C19.5 10.1326 19.3651 9.77802 19.1209 9.50346C18.8768 9.22891 18.5404 9.05351 18.1755 9.01052L18 9.00002Z" fill="#121223"/>
</svg>
